PathFileType	4	(X/Y/Z)	13_coords_data.trc
DataRate	CameraRate	NumFrames	NumMarkers	Units	OrigDataRate	OrigDataStartFrame	OrigNumFrames
30.0	30.0	7	21	m	30.0	42	62
Frame#	Time	THUMB_TIP	THUMB_IP	THUMB_MCP	THUMB_CMC	INDEX_TIP	INDEX_DIP	INDEX_PIP	INDEX_MCP	MIDDLE_TIP	MIDDLE_DIP	MIDDLE_PIP	MIDDLE_MCP	RING_TIP	RING_DIP	RING_PIP	RING_MCP	PINKY_TIP	PINKY_DIP	PINKY_PIP	PINKY_MCP	WRIST
X1	Y1	Z1	X2	Y2	Z2	X3	Y3	Z3	X4	Y4	Z4	X5	Y5	Z5	X6	Y6	Z6	X7	Y7	Z7	X8	Y8	Z8	X9	Y9	Z9	X10	Y10	Z10	X11	Y11	Z11	X12	Y12	Z12	X13	Y13	Z13	X14	Y14	Z14	X15	Y15	Z15	X16	Y16	Z16	X17	Y17	Z17	X18	Y18	Z18	X19	Y19	Z19	X20	Y20	Z20	X21	Y21	Z21
40	1.3666666666666607	0.5348524447140046	0.02670069705538014	-0.13331983118670063	0.5194458978168217	0.02471848972836188	-0.11638734268625811	0.4974274949775779	0.023188013608765767	-0.09444041626691357	0.47487906825694415	-0.009257826760459442	-0.0737347191002165	0.6011423095456905	-0.008591925819745105	-0.13064285534213754	0.5928650441570575	-0.004619447980051483	-0.11503176000903279	0.57725941103127	-0.00038616983203815236	-0.0957819962737326	0.5389433254950784	0.002254456399156779	-0.07738251866456192	0.6157486082784007	-0.04152678830341783	-0.11621313004570114	0.6046566752606514	-0.037141304416900556	-0.10258461020637674	0.583536001040778	-0.0298172290710782	-0.08388475483723845	0.541187439527818	-0.021323623275582904	-0.07245646015370075	0.6019357804541694	-0.060111182959078024	-0.11740131308705379	0.5916005933390076	-0.05693822687873365	-0.10297507806169803	0.5741738691002013	-0.05214039277264049	-0.08584411051181898	0.5363853244166246	-0.041919943944754734	-0.07573030062365618	0.5618701336228453	-0.09567481109963463	-0.12836642399277598	0.553237342434135	-0.08826429839169592	-0.11557739675464701	0.5423813907221703	-0.07817996012466105	-0.10070236891791662	0.5213552427646425	-0.05720961973429256	-0.08023216186033555	0.4622830810018608	-0.023011742144276925	-0.051989820119430985
41	1.3999999999999937	0.5381816313470857	0.03211851577580932	-0.12738129909967139	0.5227427390887198	0.028340269771187865	-0.11078715968350597	0.5005647502999934	0.025233318564077567	-0.08916995201267672	0.4755730944080456	-0.007541184340023821	-0.07210715343895152	0.6020008062580466	-0.012535177761482386	-0.12982507407394434	0.5941036520849199	-0.009574304378932585	-0.11379796626316399	0.5788946911837339	-0.005945078814155957	-0.09411228458570695	0.5406934161583076	-0.0018523308350954504	-0.07573980259737348	0.6166147674175244	-0.04687551283507685	-0.11608107873589812	0.6046649594496546	-0.04314658089155826	-0.10299302478996572	0.5827706195782854	-0.03662056841970346	-0.08489720779226773	0.5409790914814071	-0.026133119199556798	-0.0730807146922536	0.6011060903324325	-0.06487113267128869	-0.11904076285324844	0.5896843271866866	-0.06239835369921856	-0.10531382980912765	0.5713684443956436	-0.05819510239752737	-0.08897243773012758	0.5343222963336065	-0.045922469256501175	-0.07840426742721246	0.5535708551237019	-0.09741651005607987	-0.13647192376038836	0.5458312834647632	-0.09036059616634196	-0.12293260657979327	0.5362402216315151	-0.08057167892645684	-0.10702661238950484	0.5178080514268335	-0.05943520677792205	-0.0843464867800672	0.4622830810018609	-0.023011742144276925	-0.051989820119430985
42	1.4333333333333271	0.5418541257247301	0.036018921594800024	-0.12105433127612122	0.5260510927768004	0.030685426595127296	-0.10524869997790606	0.5035415991973131	0.026313279070298345	-0.0842004928139658	0.47621181418389247	-0.006179818247000812	-0.07051943006837702	0.6022567618173079	-0.016156254852839447	-0.1295808861969538	0.5947210161192247	-0.014127990122516976	-0.11323773231046202	0.5798914585557661	-0.011048037412373313	-0.0931726395677073	0.5419154083105528	-0.005591847080257117	-0.07468789751289978	0.6157372955275996	-0.05229988762977178	-0.11789914778120528	0.603276403182876	-0.04913572447099085	-0.10514319883658249	0.5812097081934764	-0.04295085454252423	-0.0871371469036141	0.5404647404062448	-0.03018153558428749	-0.07398648097521812	0.5986782515135579	-0.06948185419237438	-0.12230312764924223	0.586582664430573	-0.06760534080713049	-0.10906774058905652	0.5679627373086068	-0.06366543919397266	-0.09300674845745671	0.5322009044229689	-0.04908010362594789	-0.08104513782059777	0.54618456509526	-0.09770341587203926	-0.1436022667467199	0.539187764573079	-0.09107803683794563	-0.12945485938326992	0.5306624989200373	-0.08171324586217332	-0.1127087388019185	0.5143651143485642	-0.06086416645513437	-0.0882017072597569	0.462283081001861	-0.023011742144276925	-0.051989820119430985
43	1.4666666666666603	0.5453404087494498	0.03834746694771207	-0.11520652099037998	0.5290378564400001	0.03185085310106339	-0.1003734229752925	0.5061264180781576	0.02660728436910198	-0.07996776250706247	0.4767871628628032	-0.005186999716787766	-0.06909478670123842	0.6020898412637437	-0.019098675813353616	-0.12987065923465657	0.59485771277592	-0.01792458355611043	-0.11330811640732799	0.580371920153077	-0.015356574995873562	-0.09292241119209108	0.5426739775125647	-0.008781980943504297	-0.074233485922852	0.6131994195114776	-0.0575008968256161	-0.12156310150131897	0.6006253759896462	-0.05467945607174668	-0.10883781558769445	0.5790311099187531	-0.048344431081974504	-0.09031850995172533	0.5397892063840226	-0.0333845900483859	-0.07507304884946026	0.5948396947734268	-0.07362095606397362	-0.12711497799775004	0.5825764713666383	-0.07204597004082519	-0.1139950400900433	0.5642641404309493	-0.06800117394107397	-0.09760973755352453	0.5302039150860395	-0.051393653422319774	-0.08350966146603017	0.5402519774730282	-0.09675713562362581	-0.1495772178009805	0.533819872161777	-0.09058745727293668	-0.1349634198581454	0.5260698184296297	-0.08175046174360401	-0.11756640298273302	0.5113073864244542	-0.06155494356338459	-0.09158381077708502	0.4622830810018609	-0.023011742144276925	-0.051989820119430985
44	1.4999999999999936	0.5482697193871805	0.03938760361153093	-0.11044684911407207	0.5315190236499837	0.03221440235827755	-0.09644830004282257	0.5082248272630618	0.02646221930631487	-0.07662122752002612	0.477312700089627	-0.004476847011918583	-0.06784030678417219	0.6016468543921407	-0.021302522558875492	-0.1304826812794895	0.5946683831603133	-0.020867034967772924	-0.1137760571493861	0.5804898968292727	-0.01877106729433764	-0.0931220677557506	0.5431058209803817	-0.011305579583504477	-0.07413961638181635	0.6094942211968448	-0.06165248274663121	-0.12636276308739963	0.5973279697807746	-0.058867367658949066	-0.1132392932554789	0.5767911811447843	-0.05219236446499309	-0.09366650104584931	0.5390903502842705	-0.03580021541773387	-0.07617099525037757	0.5905918927828986	-0.07635413724385892	-0.1324437180659229	0.5785499818385038	-0.07486136526561096	-0.11911090093569021	0.5609785977053412	-0.07062979974456018	-0.10197846701969634	0.528430926261132	-0.05298668290164937	-0.08572761025375322	0.5358965973427671	-0.09506636590971618	-0.15434962787345144	0.5298377868513124	-0.08935219176884829	-0.13939506237269297	0.5226393009971588	-0.08104479822729721	-0.12150704870562123	0.5087499528591335	-0.06172584152140187	-0.09440082486133639	0.462283081001861	-0.023011742144276925	-0.051989820119430985
45	1.5333333333333266	0.5504447551779247	0.03970013878680745	-0.10689295088167305	0.5333933031532375	0.03218863057481641	-0.09344582374495769	0.5098046324440093	0.02620189110938942	-0.07404083560415478	0.4778426533526906	-0.004063313391362899	-0.06680624583736414	0.6011761646429258	-0.022926986962286455	-0.1310004458526169	0.5944111702449619	-0.02307132640521281	-0.1142012191763459	0.5804947985439602	-0.021353408247065164	-0.09333514170880397	0.5433729910836644	-0.013245226282096456	-0.07410326998232608	0.60594111510085	-0.0643109681232171	-0.13061558182198665	0.5944242091509983	-0.06152898473264676	-0.11691808403016868	0.5749913005928704	-0.05472453801571403	-0.09629113273222187	0.5384785582686175	-0.037574713062533405	-0.0770856368251128	0.5866133530254425	-0.07778820345034229	-0.1371661055917541	0.5751165131034214	-0.07638803843053543	-0.12335081660727276	0.5584540373893531	-0.07212356142185161	-0.10534092715951401	0.5270210914969874	-0.05401228584578588	-0.0874895282357484	0.5325946161034377	-0.09322694690714359	-0.15802567026595465	0.5267842066837388	-0.08794074162972637	-0.14281727863039767	0.5199583571633689	-0.08013503704633407	-0.1245610256391052	0.5067803519054449	-0.06162609411433906	-0.09654955191917597	0.4622830810018608	-0.023011742144276925	-0.051989820119430985
46	1.5666666666666598	0.5520719772876131	0.039409900923646435	-0.10463996684819471	0.5347895202932336	0.031808197927356896	-0.09154299041110739	0.5109797481119728	0.02578411496192351	-0.07242166270872141	0.47823092103283293	-0.003833109493966369	-0.06607939651515601	0.6009513186965918	-0.02399532046427577	-0.13131873006449143	0.5942762304895969	-0.024545632696433783	-0.11449195515436755	0.5804896238864757	-0.023100151787339096	-0.09351935645243697	0.5434932578477589	-0.014595947797904185	-0.07421693410612584	0.6034978609394729	-0.06578085995595429	-0.13348088219251766	0.5924285999747311	-0.06305469084993262	-0.11940823270140144	0.5737430800656764	-0.05624562240777181	-0.09810336277271395	0.5380090686156321	-0.03871197869386367	-0.0778105146531956	0.5837708004910127	-0.07821280761836713	-0.14051008959733732	0.5727422917642724	-0.07696914596107016	-0.12630356641443347	0.5567657954307468	-0.07281278708120759	-0.10765802472837255	0.5260969835152495	-0.05453709103747284	-0.08868057116344769	0.5303597019854855	-0.09149929444115992	-0.16062682812610202	0.524703752770748	-0.08654993972884906	-0.14524781234445874	0.518158268110662	-0.07916123168136738	-0.12671741453562418	0.5055000983305177	-0.0613566780791113	-0.09801807552160799	0.4622830810018609	-0.023011742144276925	-0.051989820119430985
